<?xml version='1.0' encoding='UTF-8' standalone='no'?>
<!-- Created with Fritzing (http://www.fritzing.org/) -->
<svg xmlns="http://www.w3.org/2000/svg" width="6in" x="0in" version="1.2" y="0in"  height="0.787402in" viewBox="0 0 432 56.6929" baseProfile="tiny" xmlns:svg="http://www.w3.org/2000/svg">
 <g transform="matrix(-1, 0, 0, 1, 432, 0)">
  <g partID="9060381">
   <g id="silkscreen0">
    <rect width="431.424" x="0.288" y="0.288" fill="none" height="56.1169" stroke="black" stroke-width="0.576"/>
   </g>
  </g>
  <g partID="9060380">
   <g id="board">
    <rect width="431.424" x="0.288" y="0.288" fill="none" height="56.1169" stroke="black" fill-opacity="0.5" id="boardoutline" stroke-width="0.5"/>
   </g>
  </g>
  <g partID="11985531">
   <g transform="translate(42.8472,38.9899)">
    <g transform="matrix(0,1,-1,0,0,0)">
     <g flipped="1" id="silkscreen0">
      <g transform="matrix(-1, 0, 0, 1, 10.08, 0)">
       <g>
        <g>
         <g>
          <line stroke="black" y1="1.44" stroke-width="0.72" x1="1.44" y2="8.64" x2="1.44"/>
          <line stroke="black" y1="8.64" stroke-width="0.72" x1="1.44" y2="8.64" x2="8.64"/>
          <line stroke="black" y1="8.64" stroke-width="0.72" x1="8.64" y2="1.44" x2="8.64"/>
          <line stroke="black" y1="1.44" stroke-width="0.72" x1="8.64" y2="1.44" x2="1.44"/>
          <line stroke="black" y1="3.96" stroke-width="0.36" x1="1.44" y2="1.44" x2="3.96"/>
          <!-- 120 -->
         </g>
        </g>
       </g>
      </g>
     </g>
    </g>
   </g>
  </g>
  <g partID="11985511">
   <g transform="translate(97.2232,38.9899)">
    <g transform="matrix(0,1,-1,0,0,0)">
     <g flipped="1" id="silkscreen0">
      <g transform="matrix(-1, 0, 0, 1, 10.08, 0)">
       <g>
        <g>
         <g>
          <line stroke="black" y1="1.44" stroke-width="0.72" x1="1.44" y2="8.64" x2="1.44"/>
          <line stroke="black" y1="8.64" stroke-width="0.72" x1="1.44" y2="8.64" x2="8.64"/>
          <line stroke="black" y1="8.64" stroke-width="0.72" x1="8.64" y2="1.44" x2="8.64"/>
          <line stroke="black" y1="1.44" stroke-width="0.72" x1="8.64" y2="1.44" x2="1.44"/>
          <line stroke="black" y1="3.96" stroke-width="0.36" x1="1.44" y2="1.44" x2="3.96"/>
          <!-- 120 -->
         </g>
        </g>
       </g>
      </g>
     </g>
    </g>
   </g>
  </g>
  <g partID="11985491">
   <g transform="translate(150.797,38.9899)">
    <g transform="matrix(0,1,-1,0,0,0)">
     <g flipped="1" id="silkscreen0">
      <g transform="matrix(-1, 0, 0, 1, 10.08, 0)">
       <g>
        <g>
         <g>
          <line stroke="black" y1="1.44" stroke-width="0.72" x1="1.44" y2="8.64" x2="1.44"/>
          <line stroke="black" y1="8.64" stroke-width="0.72" x1="1.44" y2="8.64" x2="8.64"/>
          <line stroke="black" y1="8.64" stroke-width="0.72" x1="8.64" y2="1.44" x2="8.64"/>
          <line stroke="black" y1="1.44" stroke-width="0.72" x1="8.64" y2="1.44" x2="1.44"/>
          <line stroke="black" y1="3.96" stroke-width="0.36" x1="1.44" y2="1.44" x2="3.96"/>
          <!-- 120 -->
         </g>
        </g>
       </g>
      </g>
     </g>
    </g>
   </g>
  </g>
  <g partID="11994740">
   <g transform="translate(151.246,2.0096)">
    <g transform="matrix(-1, 0, 0, 1, 115.2, 0)">
     <g _flipped_="1" id="silkscreen0">
      <text x="57.6" y="6.48" fill="black" font-family="OCRA" text-anchor="middle" xmlns:xml="http://www.w3.org/XML/1998/namespace" id="label" xml:space="preserve" stroke-width="0" font-size="7.2">2VCO topboard v1</text>
     </g>
    </g>
   </g>
  </g>
  <g partID="11982811">
   <g transform="translate(316.831,17.1176)">
    <g transform="matrix(0,1,-1,0,0,0)">
     <g flipped="1" id="silkscreen0">
      <g transform="matrix(-1, 0, 0, 1, 23.37, 0)">
       <g>
        <g transform="matrix(1, 0, 0, 1, -60.315, -52.412)">
         <g>
          <g>
           <g gorn="0.3.0.0.0.0.0.0" style="display:inline">
            <rect width="22.65" x="60.675" y="52.772" stroke-opacity="1" fill="none" gorn="0.3.0.0.0.0.0.0.0" ry="0" height="38.3056" stroke="black" style="fill-rule:evenodd;stroke-linecap:butt;stroke-linejoin:miter;stroke-miterlimit:4;stroke-dasharray:none;" id="housing" stroke-width="1.08"/>
            <path stroke-opacity="1" fill="none" gorn="0.3.0.0.0.0.0.0.1" stroke="black" style="fill-rule:evenodd;stroke-linecap:butt;stroke-linejoin:miter;stroke-miterlimit:4;stroke-dasharray:none" id="shaft" stroke-width="1.08" d="m74.0369,64.6282l0,2.05811L69.8912,66.6863l0,-1.91455A7.52839,7.52839,0,0,0,64.6866,71.9231,7.52839,7.52839,0,0,0,72.216,79.4513,7.52839,7.52839,0,0,0,79.7436,71.9231,7.52839,7.52839,0,0,0,74.0369,64.6282Z"/>
            <path stroke-opacity="1" fill="none" gorn="0.3.0.0.0.0.0.0.2" stroke="black" style="fill-rule:evenodd;stroke-linecap:butt;stroke-linejoin:miter;stroke-miterlimit:4;stroke-dasharray:none" id="nut" stroke-width="1.08" d="m68.7129,62.5697c2.2307,0,4.46141,0,6.69211,0,1.81519,1.81518,3.63031,3.63036,5.4455,5.44554,0,2.82118,0,5.64237,0,8.46355,-1.4981,1.4981,-2.99614,2.99614,-4.49424,4.49424,-2.50402,0,-5.0081,0,-7.51215,0,-1.80971,-1.80972,-3.61943,-3.61944,-5.42914,-5.42916,0,-2.8157,0,-5.63143,0,-8.44715,1.76597,-1.509,3.53195,-3.01801,5.29792,-4.52702z"/>
           </g>
          </g>
         </g>
        </g>
       </g>
      </g>
     </g>
    </g>
   </g>
  </g>
  <g partID="11985231">
   <g transform="translate(201.539,47.0601)">
    <g transform="matrix(-1,0,0,-1,0,0)">
     <g flipped="1" id="silkscreen0">
      <g transform="matrix(-1, 0, 0, 1, 37.417, 0)">
       <g>
        <g>
         <g>
          <polyline fill="none" points="31.58,2.227,36.771,2.227,36.771,34.825,31.58,34.825" stroke="black" id="_x30_.1.1.0" stroke-width="0.9" stroke-miterlimit="10"/>
          <polyline fill="none" points="20.928,34.825,0.567,34.825,0.567,2.227,20.928,2.227" stroke="black" id="_x30_.1.1.1" stroke-width="0.9" stroke-miterlimit="10"/>
         </g>
        </g>
       </g>
      </g>
     </g>
    </g>
   </g>
  </g>
  <g partID="11985211">
   <g transform="translate(254.339,47.0601)">
    <g transform="matrix(-1,0,0,-1,0,0)">
     <g flipped="1" id="silkscreen0">
      <g transform="matrix(-1, 0, 0, 1, 37.417, 0)">
       <g>
        <g>
         <g>
          <polyline fill="none" points="31.58,2.227,36.771,2.227,36.771,34.825,31.58,34.825" stroke="black" id="_x30_.1.1.0" stroke-width="0.9" stroke-miterlimit="10"/>
          <polyline fill="none" points="20.928,34.825,0.567,34.825,0.567,2.227,20.928,2.227" stroke="black" id="_x30_.1.1.1" stroke-width="0.9" stroke-miterlimit="10"/>
         </g>
        </g>
       </g>
      </g>
     </g>
    </g>
   </g>
  </g>
  <g partID="11985131">
   <g transform="translate(362.339,47.0601)">
    <g transform="matrix(-1,0,0,-1,0,0)">
     <g flipped="1" id="silkscreen0">
      <g transform="matrix(-1, 0, 0, 1, 37.417, 0)">
       <g>
        <g>
         <g>
          <polyline fill="none" points="31.58,2.227,36.771,2.227,36.771,34.825,31.58,34.825" stroke="black" id="_x30_.1.1.0" stroke-width="0.9" stroke-miterlimit="10"/>
          <polyline fill="none" points="20.928,34.825,0.567,34.825,0.567,2.227,20.928,2.227" stroke="black" id="_x30_.1.1.1" stroke-width="0.9" stroke-miterlimit="10"/>
         </g>
        </g>
       </g>
      </g>
     </g>
    </g>
   </g>
  </g>
  <g partID="11983231">
   <g transform="translate(416.739,47.0601)">
    <g transform="matrix(-1,0,0,-1,0,0)">
     <g flipped="1" id="silkscreen0">
      <g transform="matrix(-1, 0, 0, 1, 37.417, 0)">
       <g>
        <g>
         <g>
          <polyline fill="none" points="31.58,2.227,36.771,2.227,36.771,34.825,31.58,34.825" stroke="black" id="_x30_.1.1.0" stroke-width="0.9" stroke-miterlimit="10"/>
          <polyline fill="none" points="20.928,34.825,0.567,34.825,0.567,2.227,20.928,2.227" stroke="black" id="_x30_.1.1.1" stroke-width="0.9" stroke-miterlimit="10"/>
         </g>
        </g>
       </g>
      </g>
     </g>
    </g>
   </g>
  </g>
  <g partID="9060381">
   <g id="silkscreen0">
    <rect width="431.424" x="0.288" y="0.288" fill="none" height="56.1169" stroke="black" stroke-width="0.576"/>
   </g>
  </g>
  <g id="partLabel" partID="11985530">
   <g transform="translate(48.9288,51.02)">
    <g transform="matrix(0,-1,-1,0,0,0)">
     <g fill="#000000" font-family="'OCRA'" stroke="none" font-style="normal" fill-opacity="1" font-weight="normal" id="silkscreen0Label" font-size="5">
      <text x="0" y="3.75">out</text>
     </g>
    </g>
   </g>
  </g>
  <g id="partLabel" partID="11985510">
   <g transform="translate(103.304,51.02)">
    <g transform="matrix(0,-1,-1,0,0,0)">
     <g fill="#000000" font-family="'OCRA'" stroke="none" font-style="normal" fill-opacity="1" font-weight="normal" id="silkscreen0Label" font-size="5">
      <text x="0" y="3.75">cvgain</text>
     </g>
    </g>
   </g>
  </g>
  <g id="partLabel" partID="11985490">
   <g transform="translate(156.878,51.02)">
    <g transform="matrix(0,-1,-1,0,0,0)">
     <g fill="#000000" font-family="'OCRA'" stroke="none" font-style="normal" fill-opacity="1" font-weight="normal" id="silkscreen0Label" font-size="5">
      <text x="0" y="3.75">voct</text>
     </g>
    </g>
   </g>
  </g>
  <g id="partLabel" partID="11982810">
   <g transform="translate(322.431,17.1176)">
    <g transform="matrix(0,-1,-1,0,0,0)">
     <g fill="#000000" font-family="'OCRA'" stroke="none" font-style="normal" fill-opacity="1" font-weight="normal" id="silkscreen0Label" font-size="5">
      <text x="0" y="3.75">SW1</text>
     </g>
    </g>
   </g>
  </g>
  <g id="partLabel" partID="11985230">
   <g transform="translate(201.539,52.6601)">
    <g transform="matrix(1,0,0,-1,0,0)">
     <g fill="#000000" font-family="'OCRA'" stroke="none" font-style="normal" fill-opacity="1" font-weight="normal" id="silkscreen0Label" font-size="5">
      <text x="0" y="3.75">R4</text>
     </g>
    </g>
   </g>
  </g>
  <g id="partLabel" partID="11985130">
   <g transform="translate(362.339,52.6601)">
    <g transform="matrix(1,0,0,-1,0,0)">
     <g fill="#000000" font-family="'OCRA'" stroke="none" font-style="normal" fill-opacity="1" font-weight="normal" id="silkscreen0Label" font-size="5">
      <text x="0" y="3.75">R2</text>
     </g>
    </g>
   </g>
  </g>
  <g id="partLabel" partID="11983230">
   <g transform="translate(416.739,52.6601)">
    <g transform="matrix(1,0,0,-1,0,0)">
     <g fill="#000000" font-family="'OCRA'" stroke="none" font-style="normal" fill-opacity="1" font-weight="normal" id="silkscreen0Label" font-size="5">
      <text x="0" y="3.75">R1</text>
     </g>
    </g>
   </g>
  </g>
  <g id="partLabel" partID="11985210">
   <g transform="translate(254.339,52.6601)">
    <g transform="matrix(1,0,0,-1,0,0)">
     <g fill="#000000" font-family="'OCRA'" stroke="none" font-style="normal" fill-opacity="1" font-weight="normal" id="silkscreen0Label" font-size="5">
      <text x="0" y="3.75">R3</text>
     </g>
    </g>
   </g>
  </g>
  <g partID="11985300">
   <g transform="translate(68.332,15.591)">
    <g id="copper0">
     <circle fill="white" cx="12.9386" cy="12.9386" stroke="white" r="11.3386" id="nonconn0" stroke-width="0.72"/>
    </g>
   </g>
  </g>
  <g partID="11985280">
   <g transform="translate(14.4376,15.591)">
    <g id="copper0">
     <circle fill="white" cx="12.9386" cy="12.9386" stroke="white" r="11.3386" id="nonconn0" stroke-width="0.72"/>
    </g>
   </g>
  </g>
  <g partID="11985250">
   <g transform="translate(122.387,15.591)">
    <g id="copper0">
     <circle fill="white" cx="12.9386" cy="12.9386" stroke="white" r="11.3386" id="nonconn0" stroke-width="0.72"/>
    </g>
   </g>
  </g>
  <g partID="11985530">
   <g transform="translate(42.8472,38.9899)">
    <g transform="matrix(0,1,-1,0,0,0)">
     <g flipped="1" id="copper0">
      <g transform="matrix(-1, 0, 0, 1, 10.08, 0)">
       <g>
        <g>
         <g>
          <g id="copper0">
           <circle fill="white" cx="5.04" cy="5.04" stroke="white" id="connector0pin" r="2.088" stroke-width="2.16"/>
          </g>
         </g>
         <g>
          <circle fill="white" cx="5.04" cy="5.04" stroke="white" id="connector0pin" r="2.088" stroke-width="2.16"/>
         </g>
        </g>
       </g>
      </g>
     </g>
    </g>
   </g>
  </g>
  <g partID="11985510">
   <g transform="translate(97.2232,38.9899)">
    <g transform="matrix(0,1,-1,0,0,0)">
     <g flipped="1" id="copper0">
      <g transform="matrix(-1, 0, 0, 1, 10.08, 0)">
       <g>
        <g>
         <g>
          <g id="copper0">
           <circle fill="white" cx="5.04" cy="5.04" stroke="white" id="connector0pin" r="2.088" stroke-width="2.16"/>
          </g>
         </g>
         <g>
          <circle fill="white" cx="5.04" cy="5.04" stroke="white" id="connector0pin" r="2.088" stroke-width="2.16"/>
         </g>
        </g>
       </g>
      </g>
     </g>
    </g>
   </g>
  </g>
  <g partID="11985490">
   <g transform="translate(150.797,38.9899)">
    <g transform="matrix(0,1,-1,0,0,0)">
     <g flipped="1" id="copper0">
      <g transform="matrix(-1, 0, 0, 1, 10.08, 0)">
       <g>
        <g>
         <g>
          <g id="copper0">
           <circle fill="white" cx="5.04" cy="5.04" stroke="white" id="connector0pin" r="2.088" stroke-width="2.16"/>
          </g>
         </g>
         <g>
          <circle fill="white" cx="5.04" cy="5.04" stroke="white" id="connector0pin" r="2.088" stroke-width="2.16"/>
         </g>
        </g>
       </g>
      </g>
     </g>
    </g>
   </g>
  </g>
  <g partID="11989580">
   <g transform="translate(353.814,32.4066)">
    <g id="copper0">
     <circle fill="white" cx="3.01732" cy="3.01732" stroke="white" r="0.992124" id="connector0pin" stroke-width="1.57039"/>
    </g>
   </g>
  </g>
  <g partID="11991320">
   <g transform="translate(317.526,13.3986)">
    <g id="copper0">
     <circle fill="white" cx="3.01732" cy="3.01732" stroke="white" r="0.992124" id="connector0pin" stroke-width="1.57039"/>
    </g>
   </g>
  </g>
  <g partID="11991720">
   <g transform="translate(212.118,27.2226)">
    <g id="copper0">
     <circle fill="white" cx="3.01732" cy="3.01732" stroke="white" r="0.992124" id="connector0pin" stroke-width="1.57039"/>
    </g>
   </g>
  </g>
  <g partID="11991900">
   <g transform="translate(341.718,46.2306)">
    <g id="copper0">
     <circle fill="white" cx="3.01732" cy="3.01732" stroke="white" r="0.992124" id="connector0pin" stroke-width="1.57039"/>
    </g>
   </g>
  </g>
  <g partID="11993560">
   <g transform="translate(212.118,42.7746)">
    <g id="copper0">
     <circle fill="white" cx="3.01732" cy="3.01732" stroke="white" r="0.992124" id="connector0pin" stroke-width="1.57039"/>
    </g>
   </g>
  </g>
  <g partID="11993720">
   <g transform="translate(172.374,23.7666)">
    <g id="copper0">
     <circle fill="white" cx="3.01732" cy="3.01732" stroke="white" r="0.992124" id="connector0pin" stroke-width="1.57039"/>
    </g>
   </g>
  </g>
  <g partID="11982810">
   <g transform="translate(316.831,17.1176)">
    <g transform="matrix(0,1,-1,0,0,0)">
     <g flipped="1" id="copper0">
      <g transform="matrix(-1, 0, 0, 1, 23.37, 0)">
       <g>
        <g transform="matrix(1, 0, 0, 1, -60.315, -52.412)">
         <g>
          <g>
           <g gorn="0.4.0.0.0.0.0.0.0" style="display:inline">
            <circle stroke-opacity="1" fill="white" gorn="0.4.0.0.0.0.0.0.0.0" cx="72" cy="59.04" stroke="white" style="fill-rule:evenodd;stroke-linecap:butt;stroke-linejoin:miter;stroke-miterlimit:4;stroke-dasharray:none;" id="connector3pin" r="4.68" stroke-width="2.88"/>
            <circle stroke-opacity="1" fill="white" gorn="0.4.0.0.0.0.0.0.0.1" cx="72" cy="84.744" stroke="white" style="fill-rule:evenodd;stroke-linecap:butt;stroke-linejoin:miter;stroke-miterlimit:4;stroke-dasharray:none;" id="connector4pin" r="4.68" stroke-width="2.88"/>
            <circle stroke-opacity="1" fill="white" gorn="0.4.0.0.0.0.0.0.0.2" cx="72" cy="72" stroke="white" style="display:inline;fill-rule:evenodd;stroke-linecap:butt;stroke-linejoin:miter;stroke-miterlimit:4;stroke-dasharray:none;" id="connector0pin" r="4.68" stroke-width="2.88"/>
           </g>
           <g gorn="0.4.0.0.0.0.0.0" style="display:inline">
            <g gorn="0.4.0.0.0.0.0.0.0" style="display:inline" id="copper1">
             <circle stroke-opacity="1" fill="white" gorn="0.4.0.0.0.0.0.0.0.0" cx="72" cy="59.04" stroke="white" style="fill-rule:evenodd;stroke-linecap:butt;stroke-linejoin:miter;stroke-miterlimit:4;stroke-dasharray:none;" id="connector3pin" r="4.68" stroke-width="2.88"/>
             <circle stroke-opacity="1" fill="white" gorn="0.4.0.0.0.0.0.0.0.1" cx="72" cy="84.744" stroke="white" style="fill-rule:evenodd;stroke-linecap:butt;stroke-linejoin:miter;stroke-miterlimit:4;stroke-dasharray:none;" id="connector4pin" r="4.68" stroke-width="2.88"/>
             <circle stroke-opacity="1" fill="white" gorn="0.4.0.0.0.0.0.0.0.2" cx="72" cy="72" stroke="white" style="display:inline;fill-rule:evenodd;stroke-linecap:butt;stroke-linejoin:miter;stroke-miterlimit:4;stroke-dasharray:none;" id="connector0pin" r="4.68" stroke-width="2.88"/>
            </g>
           </g>
          </g>
         </g>
        </g>
       </g>
      </g>
     </g>
    </g>
   </g>
  </g>
  <g partID="11985230">
   <g transform="translate(201.539,47.0601)">
    <g transform="matrix(-1,0,0,-1,0,0)">
     <g flipped="1" id="copper0">
      <g transform="matrix(-1, 0, 0, 1, 37.417, 0)">
       <g>
        <g>
         <g>
          <g id="copper0">
           <rect width="4.176" x="2.944" y="9.239" fill="white" height="4.176" stroke="white" id="square" stroke-width="0.72"/>
           <circle fill="white" cx="5.032" cy="11.327" stroke="white" id="connector0pin" r="2.088" stroke-width="1.72"/>
           <circle fill="white" cx="5.031" cy="18.527" stroke="white" id="connector1pin" r="2.088" stroke-width="1.72"/>
           <circle fill="white" cx="5.032" cy="25.727" stroke="white" id="connector2pin" r="2.089" stroke-width="1.72"/>
           <g>
            <circle fill="white" cx="26.292" cy="4.548" stroke="white" id="noconnector" r="3.823" stroke-width="2.0044"/>
            <circle fill="white" cx="26.292" cy="32.506" stroke="white" id="noconnector_1_" r="3.823" stroke-width="2.0044"/>
           </g>
          </g>
         </g>
         <g>
          <rect width="4.176" x="2.944" y="9.239" fill="white" height="4.176" stroke="white" id="square" stroke-width="0.72"/>
          <circle fill="white" cx="5.032" cy="11.327" stroke="white" id="connector0pin" r="2.088" stroke-width="0.72"/>
          <circle fill="white" cx="5.031" cy="18.527" stroke="white" id="connector1pin" r="2.088" stroke-width="0.72"/>
          <circle fill="white" cx="5.032" cy="25.727" stroke="white" id="connector2pin" r="2.089" stroke-width="0.72"/>
          <g>
           <circle fill="white" cx="26.292" cy="4.548" stroke="white" id="noconnector" r="3.823" stroke-width="2.0044"/>
           <circle fill="white" cx="26.292" cy="32.506" stroke="white" id="noconnector_1_" r="3.823" stroke-width="2.0044"/>
          </g>
         </g>
        </g>
       </g>
      </g>
     </g>
    </g>
   </g>
  </g>
  <g partID="11985210">
   <g transform="translate(254.339,47.0601)">
    <g transform="matrix(-1,0,0,-1,0,0)">
     <g flipped="1" id="copper0">
      <g transform="matrix(-1, 0, 0, 1, 37.417, 0)">
       <g>
        <g>
         <g>
          <g id="copper0">
           <rect width="4.176" x="2.944" y="9.239" fill="white" height="4.176" stroke="white" id="square" stroke-width="0.72"/>
           <circle fill="white" cx="5.032" cy="11.327" stroke="white" id="connector0pin" r="2.088" stroke-width="1.72"/>
           <circle fill="white" cx="5.031" cy="18.527" stroke="white" id="connector1pin" r="2.088" stroke-width="1.72"/>
           <circle fill="white" cx="5.032" cy="25.727" stroke="white" id="connector2pin" r="2.089" stroke-width="1.72"/>
           <g>
            <circle fill="white" cx="26.292" cy="4.548" stroke="white" id="noconnector" r="3.823" stroke-width="2.0044"/>
            <circle fill="white" cx="26.292" cy="32.506" stroke="white" id="noconnector_1_" r="3.823" stroke-width="2.0044"/>
           </g>
          </g>
         </g>
         <g>
          <rect width="4.176" x="2.944" y="9.239" fill="white" height="4.176" stroke="white" id="square" stroke-width="0.72"/>
          <circle fill="white" cx="5.032" cy="11.327" stroke="white" id="connector0pin" r="2.088" stroke-width="0.72"/>
          <circle fill="white" cx="5.031" cy="18.527" stroke="white" id="connector1pin" r="2.088" stroke-width="0.72"/>
          <circle fill="white" cx="5.032" cy="25.727" stroke="white" id="connector2pin" r="2.089" stroke-width="0.72"/>
          <g>
           <circle fill="white" cx="26.292" cy="4.548" stroke="white" id="noconnector" r="3.823" stroke-width="2.0044"/>
           <circle fill="white" cx="26.292" cy="32.506" stroke="white" id="noconnector_1_" r="3.823" stroke-width="2.0044"/>
          </g>
         </g>
        </g>
       </g>
      </g>
     </g>
    </g>
   </g>
  </g>
  <g partID="11985130">
   <g transform="translate(362.339,47.0601)">
    <g transform="matrix(-1,0,0,-1,0,0)">
     <g flipped="1" id="copper0">
      <g transform="matrix(-1, 0, 0, 1, 37.417, 0)">
       <g>
        <g>
         <g>
          <g id="copper0">
           <rect width="4.176" x="2.944" y="9.239" fill="white" height="4.176" stroke="white" id="square" stroke-width="0.72"/>
           <circle fill="white" cx="5.032" cy="11.327" stroke="white" id="connector0pin" r="2.088" stroke-width="1.72"/>
           <circle fill="white" cx="5.031" cy="18.527" stroke="white" id="connector1pin" r="2.088" stroke-width="1.72"/>
           <circle fill="white" cx="5.032" cy="25.727" stroke="white" id="connector2pin" r="2.089" stroke-width="1.72"/>
           <g>
            <circle fill="white" cx="26.292" cy="4.548" stroke="white" id="noconnector" r="3.823" stroke-width="2.0044"/>
            <circle fill="white" cx="26.292" cy="32.506" stroke="white" id="noconnector_1_" r="3.823" stroke-width="2.0044"/>
           </g>
          </g>
         </g>
         <g>
          <rect width="4.176" x="2.944" y="9.239" fill="white" height="4.176" stroke="white" id="square" stroke-width="0.72"/>
          <circle fill="white" cx="5.032" cy="11.327" stroke="white" id="connector0pin" r="2.088" stroke-width="0.72"/>
          <circle fill="white" cx="5.031" cy="18.527" stroke="white" id="connector1pin" r="2.088" stroke-width="0.72"/>
          <circle fill="white" cx="5.032" cy="25.727" stroke="white" id="connector2pin" r="2.089" stroke-width="0.72"/>
          <g>
           <circle fill="white" cx="26.292" cy="4.548" stroke="white" id="noconnector" r="3.823" stroke-width="2.0044"/>
           <circle fill="white" cx="26.292" cy="32.506" stroke="white" id="noconnector_1_" r="3.823" stroke-width="2.0044"/>
          </g>
         </g>
        </g>
       </g>
      </g>
     </g>
    </g>
   </g>
  </g>
  <g partID="11983230">
   <g transform="translate(416.739,47.0601)">
    <g transform="matrix(-1,0,0,-1,0,0)">
     <g flipped="1" id="copper0">
      <g transform="matrix(-1, 0, 0, 1, 37.417, 0)">
       <g>
        <g>
         <g>
          <g id="copper0">
           <rect width="4.176" x="2.944" y="9.239" fill="white" height="4.176" stroke="white" id="square" stroke-width="0.72"/>
           <circle fill="white" cx="5.032" cy="11.327" stroke="white" id="connector0pin" r="2.088" stroke-width="1.72"/>
           <circle fill="white" cx="5.031" cy="18.527" stroke="white" id="connector1pin" r="2.088" stroke-width="1.72"/>
           <circle fill="white" cx="5.032" cy="25.727" stroke="white" id="connector2pin" r="2.089" stroke-width="1.72"/>
           <g>
            <circle fill="white" cx="26.292" cy="4.548" stroke="white" id="noconnector" r="3.823" stroke-width="2.0044"/>
            <circle fill="white" cx="26.292" cy="32.506" stroke="white" id="noconnector_1_" r="3.823" stroke-width="2.0044"/>
           </g>
          </g>
         </g>
         <g>
          <rect width="4.176" x="2.944" y="9.239" fill="white" height="4.176" stroke="white" id="square" stroke-width="0.72"/>
          <circle fill="white" cx="5.032" cy="11.327" stroke="white" id="connector0pin" r="2.088" stroke-width="0.72"/>
          <circle fill="white" cx="5.031" cy="18.527" stroke="white" id="connector1pin" r="2.088" stroke-width="0.72"/>
          <circle fill="white" cx="5.032" cy="25.727" stroke="white" id="connector2pin" r="2.089" stroke-width="0.72"/>
          <g>
           <circle fill="white" cx="26.292" cy="4.548" stroke="white" id="noconnector" r="3.823" stroke-width="2.0044"/>
           <circle fill="white" cx="26.292" cy="32.506" stroke="white" id="noconnector_1_" r="3.823" stroke-width="2.0044"/>
          </g>
         </g>
        </g>
       </g>
      </g>
     </g>
    </g>
   </g>
  </g>
  <g partID="11962820">
   <g transform="translate(414.238,1.45344)">
    <g transform="matrix(0,1,-1,0,0,0)">
     <g id="copper0">
      <circle fill="white" cx="5.04" cy="5.04" stroke="white" id="connector0pin" r="2.088" stroke-width="2.16"/>
      <circle fill="white" cx="5.04" cy="12.24" stroke="white" id="connector1pin" r="2.088" stroke-width="2.16"/>
      <circle fill="white" cx="5.04" cy="19.44" stroke="white" id="connector2pin" r="2.088" stroke-width="2.16"/>
      <circle fill="white" cx="5.04" cy="26.64" stroke="white" id="connector3pin" r="2.088" stroke-width="2.16"/>
      <circle fill="white" cx="5.04" cy="33.84" stroke="white" id="connector4pin" r="2.088" stroke-width="2.16"/>
      <circle fill="white" cx="5.04" cy="41.04" stroke="white" id="connector5pin" r="2.088" stroke-width="2.16"/>
      <circle fill="white" cx="5.04" cy="48.24" stroke="white" id="connector6pin" r="2.088" stroke-width="2.16"/>
     </g>
    </g>
   </g>
  </g>
  <g partID="10753950">
   <g transform="translate(76.576,0.51456)">
    <g transform="matrix(0,1,-1,0,0,0)">
     <g id="copper0">
      <circle fill="white" cx="5.04" cy="5.04" stroke="white" id="connector0pin" r="2.088" stroke-width="2.16"/>
      <circle fill="white" cx="5.04" cy="12.24" stroke="white" id="connector1pin" r="2.088" stroke-width="2.16"/>
      <circle fill="white" cx="5.04" cy="19.44" stroke="white" id="connector2pin" r="2.088" stroke-width="2.16"/>
     </g>
    </g>
   </g>
  </g>
  <g partID="9072400">
   <g transform="translate(413.226,3.87072)">
    <g id="copper0">
     <circle fill="white" cx="6.4189" cy="6.4189" stroke="white" r="4.67716" id="nonconn0" stroke-width="1.00347"/>
    </g>
   </g>
  </g>
  <g partID="9234270">
   <g transform="translate(5.0712,39.3859)">
    <g id="copper0">
     <circle fill="white" cx="6.4189" cy="6.4189" stroke="white" r="4.67716" id="nonconn0" stroke-width="1.00347"/>
    </g>
   </g>
  </g>
  <g partID="9072380">
   <g transform="translate(413.226,39.3859)">
    <g id="copper0">
     <circle fill="white" cx="6.4189" cy="6.4189" stroke="white" r="4.67716" id="nonconn0" stroke-width="1.00347"/>
    </g>
   </g>
  </g>
  <g partID="9072310">
   <g transform="translate(4.4264,3.87072)">
    <g id="copper0">
     <circle fill="white" cx="6.4189" cy="6.4189" stroke="white" r="4.67716" id="nonconn0" stroke-width="1.00347"/>
    </g>
   </g>
  </g>
 </g>
</svg>
